<svg xmlns="http://www.w3.org/2000/svg" xmlns:xlink="http://www.w3.org/1999/xlink" width="144.138" height="50.043" viewBox="0 0 144.138 50.043"><defs><style>.a{fill:#3c3c3b;}.b,.f{opacity:0.55;}.c,.f{fill:#1d1d1b;}.d{fill:url(#a);}.e{fill:url(#b);}</style><radialGradient id="a" cx="0.779" cy="0.47" r="0.505" gradientTransform="translate(-0.44 0.002) scale(1.564 0.996)" gradientUnits="objectBoundingBox"><stop offset="0" stop-color="#0028d0"/><stop offset="0.661" stop-color="#0028bc"/><stop offset="1" stop-color="#002891"/></radialGradient><radialGradient id="b" cx="0.58" cy="0.514" fx="1.1741343039274215" fy="0.5141036510467529" r="0.6" gradientTransform="translate(-0.5) scale(2 1)" gradientUnits="objectBoundingBox"><stop offset="0" stop-color="#49b1fc"/><stop offset="1" stop-color="#0028d0"/></radialGradient></defs><g transform="translate(-52.725 -43.617)"><g transform="translate(110.481 43.618)"><path class="a" d="M206.313,56.852a13.1,13.1,0,0,1-4.263.54c-4.109,0-5.594-1.813-5.594-6.887s1.485-6.886,5.594-6.886a14.072,14.072,0,0,1,3.993.444l-.251,2.2c-1.254-.077-2.064-.1-3.742-.1-1.929,0-2.508.984-2.508,4.34s.579,4.34,2.508,4.34a29.532,29.532,0,0,0,4.012-.174Z" transform="translate(-196.456 -43.619)"/><path class="a" d="M226.349,54.013l-.964,3.492h-3.009l3.838-12.538a1.017,1.017,0,0,1,1.023-.772h2.778a1,1,0,0,1,1.022.772l3.839,12.538h-2.99l-.965-3.492Zm2.816-6.346c-.1-.405-.212-.849-.27-1.254h-.521c-.1.405-.193.849-.289,1.254l-1.119,4.07h3.318Z" transform="translate(-211.96 -43.964)"/><path class="a" d="M257.55,54.013l-.964,3.492h-3.009l3.839-12.538a1.016,1.016,0,0,1,1.023-.772h2.777a1,1,0,0,1,1.022.772l3.838,12.538h-2.99l-.964-3.492Zm2.816-6.346c-.1-.405-.212-.849-.27-1.254h-.52c-.1.405-.193.849-.29,1.254l-1.119,4.07h3.318Z" transform="translate(-230.623 -43.964)"/><path class="a" d="M288.088,43.937a46.4,46.4,0,0,1,5.054-.174c3.684,0,4.861.945,4.861,4.34,0,3.433-1.176,4.36-4.475,4.36a20.6,20.6,0,0,1-2.508-.154v4.938h-2.932Zm5,6.269c1.5-.019,1.968-.444,1.968-2.1s-.463-2.084-1.968-2.084l-2.064.019v4.167Z" transform="translate(-251.267 -43.705)"/><path class="a" d="M317.559,57.505V44.195h2.932v13.31Z" transform="translate(-268.895 -43.964)"/><path class="a" d="M331.575,43.937c1.524-.1,3.144-.174,5.17-.174,4.186,0,5.671,1.562,5.671,6.828s-1.485,6.829-5.671,6.829c-2.006,0-3.646-.077-5.17-.174Zm2.932,11.149c.675,0,1.427.019,2.237.019,1.987,0,2.585-1.022,2.585-4.514s-.6-4.533-2.585-4.533l-2.237.019Z" transform="translate(-277.279 -43.705)"/></g><g class="b" transform="translate(110.522 64.621)"><path class="c" d="M200.92,111.387c-2.588,0-4.289-1.479-4.363-3.457h1.368a2.686,2.686,0,0,0,2.995,2.366c1.793,0,2.847-1.054,2.847-2.385,0-3.808-7.1-1.4-7.1-6.267,0-2,1.645-3.457,4.141-3.457,2.459,0,3.938,1.368,4.16,3.143h-1.4a2.642,2.642,0,0,0-2.81-2.034c-1.516-.018-2.773.813-2.773,2.311,0,3.734,7.1,1.442,7.1,6.248C205.08,109.612,203.656,111.387,200.92,111.387Z" transform="translate(-196.557 -97.263)"/><path class="c" d="M223.237,97.06a.943.943,0,1,1,1.885,0,.943.943,0,1,1-1.885,0Zm.3,2.865h1.294v10.093h-1.294Z" transform="translate(-212.516 -96.025)"/><path class="c" d="M249.259,109.645c0-2.237-1.164-3.383-2.958-3.383-1.83,0-3.124,1.22-3.124,3.679v5.472H241.9v-5.768c0-2.237-1.183-3.383-2.976-3.383-1.849,0-3.125,1.22-3.125,3.679v5.472h-1.294V105.319H235.8v1.738a3.606,3.606,0,0,1,3.346-1.923,3.73,3.73,0,0,1,3.734,2.477,3.677,3.677,0,0,1,3.642-2.477c2.237,0,4.012,1.405,4.012,4.363v5.915h-1.276Z" transform="translate(-219.257 -101.418)"/><path class="c" d="M286.805,105.226c2.754,0,4.806,2.015,4.806,5.176s-2.052,5.213-4.806,5.213a4.313,4.313,0,0,1-4.012-2.366v6.988h-1.275V105.374h1.275v2.218A4.283,4.283,0,0,1,286.805,105.226Zm-.259,1.128a4.08,4.08,0,0,0,0,8.134c2.126,0,3.753-1.535,3.753-4.085C290.3,107.833,288.672,106.354,286.547,106.354Z" transform="translate(-247.378 -101.473)"/><path class="c" d="M312.568,96.669h1.294v13.68h-1.294Z" transform="translate(-265.951 -96.355)"/><path class="c" d="M322.365,97.06a.943.943,0,1,1,1.885,0,.943.943,0,1,1-1.885,0Zm.3,2.865h1.294v10.093h-1.294Z" transform="translate(-271.811 -96.025)"/><path class="c" d="M332.371,100.878h-1.405v-1.09h1.405v-.7c0-2.163,1.017-3.2,3.568-3.2V97c-1.719,0-2.274.628-2.274,2.089v.7h2.348v1.09h-2.348v9h-1.293Z" transform="translate(-276.956 -95.887)"/><path class="c" d="M347.848,97.06a.943.943,0,1,1,1.886,0,.943.943,0,1,1-1.886,0Zm.3,2.865h1.294v10.093h-1.294Z" transform="translate(-287.054 -96.025)"/><path class="c" d="M362.6,115.615c-2.865,0-4.955-2-4.955-5.195,0-3.217,2.052-5.195,4.955-5.195a4.538,4.538,0,0,1,4.769,4.677,8.954,8.954,0,0,1-.037,1.017h-8.375a3.529,3.529,0,0,0,3.642,3.6,3.125,3.125,0,0,0,3.254-2.256h1.368A4.437,4.437,0,0,1,362.6,115.615Zm-3.642-5.749h7.1a3.3,3.3,0,0,0-3.512-3.531A3.485,3.485,0,0,0,358.958,109.866Z" transform="translate(-292.914 -101.473)"/><path class="c" d="M391.1,100.107a4.388,4.388,0,0,1,3.975,2.329V96.669h1.294v13.68h-1.294v-2.256a4.209,4.209,0,0,1-3.993,2.4c-2.773,0-4.825-2.052-4.825-5.213S388.31,100.107,391.1,100.107Zm.222,1.128c-2.126,0-3.753,1.479-3.753,4.049,0,2.551,1.627,4.085,3.753,4.085a4.08,4.08,0,0,0,0-8.134Z" transform="translate(-310.029 -96.355)"/></g><g class="b" transform="translate(110.5 87.8)"><path class="c" d="M199.8,156.4a1.887,1.887,0,0,1-2.115,1.989H196.5v-4h1.183A1.894,1.894,0,0,1,199.8,156.4Zm-2.115,1.658a1.667,1.667,0,1,0,0-3.333H196.9v3.333Z" transform="translate(-196.503 -154.063)"/><path class="c" d="M207.619,159.671a1.608,1.608,0,0,1,0-3.213,1.4,1.4,0,0,1,1.475,1.446,2.694,2.694,0,0,1-.012.315h-2.59a1.091,1.091,0,0,0,1.126,1.115.966.966,0,0,0,1.006-.7h.423A1.373,1.373,0,0,1,207.619,159.671Zm-1.126-1.778h2.2A1.02,1.02,0,0,0,207.6,156.8,1.078,1.078,0,0,0,206.493,157.893Z" transform="translate(-202.236 -155.297)"/><path class="c" d="M219.95,157.824c0-.692-.36-1.046-.915-1.046s-.966.377-.966,1.138v1.692h-.395v-1.783c0-.692-.366-1.046-.921-1.046-.571,0-.966.377-.966,1.138v1.692h-.4v-3.121h.4v.537a1.115,1.115,0,0,1,1.035-.595,1.153,1.153,0,0,1,1.154.766,1.137,1.137,0,0,1,1.126-.766,1.2,1.2,0,0,1,1.24,1.349v1.829h-.394Z" transform="translate(-207.799 -155.28)"/><path class="c" d="M231.528,156.572h.412l-1.852,4.591h-.417l.606-1.486-1.281-3.1h.44l1.064,2.664Z" transform="translate(-215.939 -155.366)"/><path class="c" d="M238.474,159.671c-.709,0-1.206-.354-1.258-.926h.412c.034.343.331.589.84.589.446,0,.7-.24.7-.538,0-.772-1.875-.32-1.875-1.492,0-.463.44-.846,1.1-.846a1.014,1.014,0,0,1,1.144.955h-.4a.666.666,0,0,0-.755-.612c-.418,0-.68.223-.68.5,0,.846,1.847.395,1.864,1.5C239.56,159.3,239.119,159.671,238.474,159.671Z" transform="translate(-220.856 -155.297)"/><path class="c" d="M244.562,155.743h-.435v-.337h.435v-.783h.406v.783h.857v.337h-.857v1.938c0,.383.131.5.492.5h.366v.343H245.4c-.543,0-.835-.223-.835-.846Z" transform="translate(-224.99 -154.2)"/><path class="c" d="M249.759,153.932a.292.292,0,0,1,.583,0,.292.292,0,1,1-.583,0Zm.092.886h.4v3.121h-.4Z" transform="translate(-228.359 -153.612)"/><path class="c" d="M252.853,155.113h-.435v-.337h.435v-.217c0-.669.314-.989,1.1-.989v.343c-.532,0-.7.194-.7.646v.217h.726v.337h-.726V157.9h-.4Z" transform="translate(-229.949 -153.57)"/><path class="c" d="M259.473,156.572h.411l-1.852,4.591h-.418l.606-1.486-1.281-3.1h.44l1.063,2.664Z" transform="translate(-232.654 -155.366)"/><path class="c" d="M265.387,153.932a.292.292,0,0,1,.583,0,.292.292,0,1,1-.583,0Zm.092.886h.4v3.121h-.4Z" transform="translate(-237.707 -153.612)"/><path class="c" d="M271.21,157.824a.913.913,0,0,0-.949-1.046c-.583,0-.989.366-.989,1.126v1.7h-.4v-3.121h.4v.532a1.141,1.141,0,0,1,1.064-.589,1.212,1.212,0,0,1,1.269,1.349v1.829h-.395Z" transform="translate(-239.791 -155.28)"/><path class="c" d="M278.91,156.458a1.311,1.311,0,0,1,1.235.726v-.68h.4v3.2a1.509,1.509,0,0,1-2.95.389h.395a1.068,1.068,0,0,0,1.1.714,1.017,1.017,0,0,0,1.058-1.1v-.772a1.315,1.315,0,0,1-1.235.737,1.611,1.611,0,0,1,0-3.213Zm.074.349a1.14,1.14,0,0,0-1.161,1.252,1.164,1.164,0,1,0,1.161-1.252Z" transform="translate(-244.903 -155.297)"/><path class="c" d="M294.667,156.4a1.887,1.887,0,0,1-2.115,1.989h-1.183v-4h1.183A1.894,1.894,0,0,1,294.667,156.4Zm-2.115,1.658a1.667,1.667,0,1,0,0-3.333h-.784v3.333Z" transform="translate(-253.248 -154.063)"/><path class="c" d="M302.486,159.671a1.608,1.608,0,0,1,0-3.213,1.4,1.4,0,0,1,1.475,1.446,2.793,2.793,0,0,1-.011.315h-2.59a1.091,1.091,0,0,0,1.126,1.115.966.966,0,0,0,1.006-.7h.424A1.373,1.373,0,0,1,302.486,159.671Zm-1.126-1.778h2.2a1.021,1.021,0,0,0-1.087-1.092A1.077,1.077,0,0,0,301.359,157.893Z" transform="translate(-258.981 -155.297)"/><path class="c" d="M312.592,157.824a.913.913,0,0,0-.949-1.046c-.583,0-.989.366-.989,1.126v1.7h-.4v-3.121h.4v.532a1.14,1.14,0,0,1,1.063-.589,1.212,1.212,0,0,1,1.269,1.349v1.829h-.395Z" transform="translate(-264.545 -155.28)"/><path class="c" d="M318.893,155.743h-.434v-.337h.434v-.783h.406v.783h.858v.337H319.3v1.938c0,.383.131.5.491.5h.366v.343h-.429c-.543,0-.835-.223-.835-.846Z" transform="translate(-269.453 -154.2)"/><path class="c" d="M325.355,156.458a1.3,1.3,0,0,1,1.235.732V156.5h.4v3.121h-.4v-.692a1.318,1.318,0,0,1-1.24.737,1.611,1.611,0,0,1,.006-3.213Zm.074.349a1.139,1.139,0,0,0-1.16,1.252,1.164,1.164,0,1,0,1.16-1.252Z" transform="translate(-272.685 -155.297)"/><path class="c" d="M333.918,153.812h.4v4.23h-.4Z" transform="translate(-278.7 -153.715)"/><path class="c" d="M342.976,157.519h-1.818l-.348.949h-.424l1.458-3.944h.451l1.452,3.944h-.423Zm-.909-2.493-.789,2.161h1.578Z" transform="translate(-282.569 -154.14)"/><path class="c" d="M351.385,154.875a1.357,1.357,0,0,1,1.229.72v-1.783h.4v4.23h-.4v-.7a1.3,1.3,0,0,1-1.235.743,1.61,1.61,0,0,1,.006-3.213Zm.068.349a1.14,1.14,0,0,0-1.16,1.252,1.164,1.164,0,1,0,1.16-1.252Z" transform="translate(-288.252 -153.715)"/><path class="c" d="M364.5,157.824c0-.692-.36-1.046-.915-1.046s-.966.377-.966,1.138v1.692h-.394v-1.783c0-.692-.367-1.046-.921-1.046-.571,0-.966.377-.966,1.138v1.692h-.4v-3.121h.4v.537a1.115,1.115,0,0,1,1.035-.595,1.154,1.154,0,0,1,1.155.766,1.137,1.137,0,0,1,1.126-.766,1.2,1.2,0,0,1,1.24,1.349v1.829H364.5Z" transform="translate(-294.266 -155.28)"/><path class="c" d="M374.247,153.932a.292.292,0,0,1,.583,0,.292.292,0,1,1-.583,0Zm.092.886h.4v3.121h-.4Z" transform="translate(-302.823 -153.612)"/><path class="c" d="M378.534,159.671c-.709,0-1.206-.354-1.258-.926h.412c.034.343.331.589.84.589.446,0,.7-.24.7-.538,0-.772-1.875-.32-1.875-1.492,0-.463.44-.846,1.1-.846a1.014,1.014,0,0,1,1.144.955h-.4a.666.666,0,0,0-.754-.612c-.417,0-.68.223-.68.5,0,.846,1.846.395,1.863,1.5C379.62,159.3,379.18,159.671,378.534,159.671Z" transform="translate(-304.635 -155.297)"/><path class="c" d="M385.786,159.671c-.709,0-1.206-.354-1.258-.926h.411c.035.343.332.589.84.589.446,0,.7-.24.7-.538,0-.772-1.875-.32-1.875-1.492,0-.463.44-.846,1.1-.846a1.014,1.014,0,0,1,1.144.955h-.4a.666.666,0,0,0-.754-.612c-.418,0-.68.223-.68.5,0,.846,1.846.395,1.863,1.5C386.871,159.3,386.431,159.671,385.786,159.671Z" transform="translate(-308.973 -155.297)"/><path class="c" d="M392.008,153.932a.292.292,0,0,1,.583,0,.292.292,0,1,1-.583,0Zm.092.886h.4v3.121h-.4Z" transform="translate(-313.447 -153.612)"/><path class="c" d="M396.586,159.671a1.607,1.607,0,1,1,1.572-1.607A1.522,1.522,0,0,1,396.586,159.671Zm0-.349a1.263,1.263,0,1,0-1.143-1.258A1.131,1.131,0,0,0,396.586,159.322Z" transform="translate(-315.259 -155.297)"/><path class="c" d="M406.961,157.824a.913.913,0,0,0-.949-1.046c-.583,0-.989.366-.989,1.126v1.7h-.4v-3.121h.4v.532a1.141,1.141,0,0,1,1.064-.589,1.212,1.212,0,0,1,1.269,1.349v1.829h-.395Z" transform="translate(-320.993 -155.28)"/></g><g transform="translate(52.725 43.617)"><path class="d" d="M105.507,76.626A15.5,15.5,0,0,1,90,92.129v-17.5a15.5,15.5,0,1,1,0-31.009v17.5A15.505,15.505,0,0,1,105.507,76.626Z" transform="translate(-65.749 -43.617)"/><path class="e" d="M76.98,74.637v17.5a24.255,24.255,0,0,1-.442-48.506,15.5,15.5,0,0,0,.442,31Z" transform="translate(-52.725 -43.628)"/></g><rect class="f" width="48.512" height="0.296" transform="translate(99.614 92.129) rotate(-90)"/></g></svg>