<svg xmlns="http://www.w3.org/2000/svg" xmlns:xlink="http://www.w3.org/1999/xlink" width="112.307" height="38.991" viewBox="0 0 112.307 38.991"><defs><style>.a{fill:#3c3c3b;}.b,.f{opacity:0.55;}.c,.f{fill:#1d1d1b;}.d{fill:url(#a);}.e{fill:url(#b);}</style><radialGradient id="a" cx="0.779" cy="0.47" r="0.505" gradientTransform="translate(-0.44 0.002) scale(1.564 0.996)" gradientUnits="objectBoundingBox"><stop offset="0" stop-color="#0028d0"/><stop offset="0.661" stop-color="#0028bc"/><stop offset="1" stop-color="#002891"/></radialGradient><radialGradient id="b" cx="0.58" cy="0.514" fx="1.1741343039274215" fy="0.5141036510467529" r="0.6" gradientTransform="translate(-0.5) scale(2 1)" gradientUnits="objectBoundingBox"><stop offset="0" stop-color="#49b1fc"/><stop offset="1" stop-color="#0028d0"/></radialGradient></defs><g transform="translate(-52.725 -43.617)"><g transform="translate(97.727 43.618)"><path class="a" d="M204.136,53.93a10.2,10.2,0,0,1-3.321.421c-3.2,0-4.359-1.413-4.359-5.366s1.157-5.366,4.359-5.366a10.965,10.965,0,0,1,3.111.346l-.2,1.713c-.977-.06-1.608-.075-2.916-.075-1.5,0-1.954.767-1.954,3.382s.451,3.382,1.954,3.382a23.011,23.011,0,0,0,3.126-.135Z" transform="translate(-196.456 -43.619)"/><path class="a" d="M225.472,51.845l-.751,2.72h-2.345l2.991-9.77a.792.792,0,0,1,.8-.6h2.164a.78.78,0,0,1,.8.6l2.991,9.77h-2.329l-.752-2.72Zm2.194-4.945c-.075-.316-.165-.661-.21-.977h-.406c-.075.316-.15.662-.225.977l-.872,3.171h2.585Z" transform="translate(-214.261 -44.015)"/><path class="a" d="M256.672,51.845l-.751,2.72h-2.345l2.991-9.77a.792.792,0,0,1,.8-.6h2.164a.78.78,0,0,1,.8.6l2.991,9.77h-2.329l-.751-2.72Zm2.194-4.945c-.075-.316-.165-.661-.21-.977h-.405c-.075.316-.151.662-.226.977l-.872,3.171h2.585Z" transform="translate(-235.692 -44.015)"/><path class="a" d="M288.088,43.9a36.148,36.148,0,0,1,3.938-.135c2.871,0,3.787.736,3.787,3.382,0,2.675-.916,3.4-3.487,3.4a16.05,16.05,0,0,1-1.954-.12v3.848h-2.284Zm3.892,4.885c1.173-.015,1.533-.346,1.533-1.638s-.361-1.623-1.533-1.623l-1.608.015v3.246Z" transform="translate(-259.398 -43.718)"/><path class="a" d="M317.559,54.566V44.195h2.285V54.566Z" transform="translate(-279.642 -44.015)"/><path class="a" d="M331.575,43.9c1.187-.075,2.45-.135,4.028-.135,3.262,0,4.419,1.217,4.419,5.32S338.865,54.4,335.6,54.4c-1.563,0-2.841-.06-4.028-.135Zm2.285,8.687c.526,0,1.112.015,1.743.015,1.548,0,2.014-.8,2.014-3.517s-.466-3.532-2.014-3.532l-1.743.015Z" transform="translate(-289.27 -43.718)"/></g><g class="b" transform="translate(97.758 59.982)"><path class="c" d="M199.957,108.472c-2.017,0-3.342-1.153-3.4-2.694h1.066a2.093,2.093,0,0,0,2.334,1.844c1.4,0,2.218-.821,2.218-1.858,0-2.967-5.531-1.095-5.531-4.883,0-1.555,1.282-2.694,3.226-2.694,1.916,0,3.068,1.066,3.241,2.449h-1.095a2.058,2.058,0,0,0-2.189-1.585,1.9,1.9,0,0,0-2.161,1.8c0,2.91,5.531,1.123,5.531,4.868C203.2,107.089,202.088,108.472,199.957,108.472Z" transform="translate(-196.557 -97.467)"/><path class="c" d="M223.237,96.852a.735.735,0,1,1,1.469,0,.735.735,0,1,1-1.469,0Zm.23,2.233h1.008v7.864h-1.008Z" transform="translate(-214.884 -96.045)"/><path class="c" d="M246,108.649c0-1.743-.907-2.636-2.3-2.636-1.426,0-2.434.951-2.434,2.866v4.263h-.994v-4.494c0-1.743-.922-2.636-2.319-2.636-1.441,0-2.435.951-2.435,2.866v4.263h-1.008v-7.864h1.008v1.354a2.81,2.81,0,0,1,2.607-1.5,2.906,2.906,0,0,1,2.91,1.93,2.865,2.865,0,0,1,2.838-1.93c1.743,0,3.126,1.095,3.126,3.4v4.609H246Z" transform="translate(-222.625 -102.239)"/><path class="c" d="M285.638,105.226a4.06,4.06,0,0,1,0,8.1,3.361,3.361,0,0,1-3.126-1.844v5.444h-.994v-11.58h.994v1.728A3.337,3.337,0,0,1,285.638,105.226Zm-.2.879a3.179,3.179,0,0,0,0,6.338,2.9,2.9,0,0,0,2.924-3.183A2.871,2.871,0,0,0,285.436,106.1Z" transform="translate(-254.917 -102.302)"/><path class="c" d="M312.568,96.669h1.008v10.659h-1.008Z" transform="translate(-276.245 -96.424)"/><path class="c" d="M322.365,96.852a.735.735,0,1,1,1.469,0,.735.735,0,1,1-1.469,0Zm.23,2.233H323.6v7.864H322.6Z" transform="translate(-282.975 -96.045)"/><path class="c" d="M332.061,99.776h-1.095v-.849h1.095v-.548c0-1.685.792-2.492,2.78-2.492v.864c-1.34,0-1.772.49-1.772,1.627v.548H334.9v.849h-1.829v7.015h-1.008Z" transform="translate(-288.883 -95.887)"/><path class="c" d="M347.848,96.852a.735.735,0,1,1,1.469,0,.735.735,0,1,1-1.469,0Zm.231,2.233h1.008v7.864h-1.008Z" transform="translate(-300.479 -96.045)"/><path class="c" d="M361.505,113.321a4.052,4.052,0,0,1,0-8.1,3.536,3.536,0,0,1,3.716,3.644,6.967,6.967,0,0,1-.029.792h-6.525a2.75,2.75,0,0,0,2.838,2.809,2.435,2.435,0,0,0,2.535-1.757h1.066A3.457,3.457,0,0,1,361.505,113.321Zm-2.838-4.479H364.2a2.572,2.572,0,0,0-2.737-2.751A2.715,2.715,0,0,0,358.668,108.842Z" transform="translate(-307.209 -102.302)"/><path class="c" d="M390.032,99.348a3.419,3.419,0,0,1,3.1,1.815V96.669h1.008v10.659h-1.008v-1.757a3.279,3.279,0,0,1-3.111,1.873,4.058,4.058,0,0,1,.014-8.1Zm.173.879a2.871,2.871,0,0,0-2.924,3.154,2.933,2.933,0,1,0,2.924-3.154Z" transform="translate(-326.863 -96.424)"/></g><g class="b" transform="translate(97.741 78.043)"><path class="c" d="M199.073,155.958a1.47,1.47,0,0,1-1.648,1.55H196.5V154.4h.922A1.476,1.476,0,0,1,199.073,155.958Zm-1.648,1.292a1.3,1.3,0,1,0,0-2.6h-.61v2.6Z" transform="translate(-196.503 -154.137)"/><path class="c" d="M207.281,158.961a1.253,1.253,0,0,1,0-2.5,1.094,1.094,0,0,1,1.149,1.127,2.1,2.1,0,0,1-.009.245H206.4a.85.85,0,0,0,.878.869.753.753,0,0,0,.784-.544h.33A1.069,1.069,0,0,1,207.281,158.961Zm-.878-1.385h1.71a.8.8,0,0,0-.846-.851A.84.84,0,0,0,206.4,157.576Z" transform="translate(-203.086 -155.554)"/><path class="c" d="M218.943,157.516c0-.539-.281-.815-.713-.815s-.753.294-.753.886v1.318h-.307v-1.39c0-.539-.285-.815-.717-.815s-.753.294-.753.886v1.318h-.312v-2.432h.312v.419a.869.869,0,0,1,.807-.463.9.9,0,0,1,.9.6.886.886,0,0,1,.878-.6.935.935,0,0,1,.967,1.051v1.425h-.307Z" transform="translate(-209.475 -155.534)"/><path class="c" d="M230.969,156.572h.321l-1.443,3.577h-.325l.472-1.158-1-2.419h.343l.829,2.076Z" transform="translate(-218.823 -155.632)"/><path class="c" d="M238.2,158.961c-.552,0-.94-.276-.98-.721h.321c.027.267.258.459.655.459.348,0,.544-.187.544-.419,0-.6-1.461-.249-1.461-1.163,0-.361.343-.659.855-.659a.79.79,0,0,1,.891.744h-.312a.519.519,0,0,0-.588-.477c-.325,0-.53.173-.53.387,0,.659,1.439.307,1.452,1.167C239.042,158.672,238.7,158.961,238.2,158.961Z" transform="translate(-224.469 -155.554)"/><path class="c" d="M244.466,155.5h-.339v-.263h.339v-.61h.316v.61h.668v.263h-.668v1.51c0,.3.1.392.383.392h.285v.267h-.334c-.423,0-.65-.174-.65-.659Z" transform="translate(-229.216 -154.293)"/><path class="c" d="M249.759,153.868a.227.227,0,0,1,.454,0,.227.227,0,1,1-.454,0Zm.071.691h.312v2.432h-.312Z" transform="translate(-233.085 -153.619)"/><path class="c" d="M252.757,154.773h-.339v-.263h.339v-.169c0-.521.245-.771.859-.771v.267c-.414,0-.548.151-.548.5v.169h.566v.263h-.566v2.169h-.312Z" transform="translate(-234.911 -153.57)"/><path class="c" d="M258.913,156.572h.321l-1.443,3.577h-.325l.472-1.158-1-2.419h.343l.828,2.076Z" transform="translate(-238.017 -155.632)"/><path class="c" d="M265.387,153.868a.227.227,0,0,1,.455,0,.227.227,0,1,1-.455,0Zm.071.691h.312v2.432h-.312Z" transform="translate(-243.82 -153.619)"/><path class="c" d="M270.694,157.516a.711.711,0,0,0-.739-.815c-.454,0-.771.285-.771.878v1.327h-.312v-2.432h.312v.414a.889.889,0,0,1,.829-.459A.944.944,0,0,1,271,157.48v1.425h-.307Z" transform="translate(-246.214 -155.534)"/><path class="c" d="M278.581,156.458a1.021,1.021,0,0,1,.962.566v-.53h.312v2.494a1.176,1.176,0,0,1-2.3.3h.307a.832.832,0,0,0,.855.557.793.793,0,0,0,.824-.86v-.6a1.025,1.025,0,0,1-.962.575,1.255,1.255,0,0,1,0-2.5Zm.058.272a.888.888,0,0,0-.9.975.907.907,0,1,0,.9-.975Z" transform="translate(-252.084 -155.554)"/><path class="c" d="M293.939,155.958a1.47,1.47,0,0,1-1.648,1.55h-.922V154.4h.922A1.476,1.476,0,0,1,293.939,155.958Zm-1.648,1.292a1.3,1.3,0,1,0,0-2.6h-.611v2.6Z" transform="translate(-261.667 -154.137)"/><path class="c" d="M302.147,158.961a1.253,1.253,0,0,1,0-2.5,1.093,1.093,0,0,1,1.149,1.127,2.174,2.174,0,0,1-.009.245H301.27a.85.85,0,0,0,.878.869.752.752,0,0,0,.784-.544h.33A1.069,1.069,0,0,1,302.147,158.961Zm-.878-1.385h1.71a.8.8,0,0,0-.847-.851A.839.839,0,0,0,301.27,157.576Z" transform="translate(-268.25 -155.554)"/><path class="c" d="M312.076,157.516a.711.711,0,0,0-.739-.815c-.454,0-.771.285-.771.878v1.327h-.312v-2.432h.312v.414a.888.888,0,0,1,.828-.459.944.944,0,0,1,.989,1.051v1.425h-.307Z" transform="translate(-274.639 -155.534)"/><path class="c" d="M318.8,155.5h-.338v-.263h.338v-.61h.317v.61h.668v.263h-.668v1.51c0,.3.1.392.383.392h.285v.267h-.334c-.423,0-.651-.174-.651-.659Z" transform="translate(-280.275 -154.293)"/><path class="c" d="M325.026,156.458a1.015,1.015,0,0,1,.962.57v-.534h.312v2.432h-.312v-.539a1.027,1.027,0,0,1-.967.575,1.255,1.255,0,0,1,0-2.5Zm.058.272a.888.888,0,0,0-.9.975.907.907,0,1,0,.9-.975Z" transform="translate(-283.987 -155.554)"/><path class="c" d="M333.918,153.812h.312v3.3h-.312Z" transform="translate(-290.894 -153.736)"/><path class="c" d="M342.4,156.857h-1.416l-.271.739h-.33l1.136-3.073h.352l1.132,3.073h-.329Zm-.708-1.942-.615,1.684h1.23Z" transform="translate(-295.337 -154.225)"/><path class="c" d="M351.054,154.64a1.057,1.057,0,0,1,.957.561v-1.39h.312v3.3h-.312v-.543a1.014,1.014,0,0,1-.962.579,1.255,1.255,0,0,1,0-2.5Zm.053.272a.888.888,0,0,0-.9.975.907.907,0,1,0,.9-.975Z" transform="translate(-301.863 -153.736)"/><path class="c" d="M363.5,157.516c0-.539-.281-.815-.713-.815s-.753.294-.753.886v1.318h-.307v-1.39c0-.539-.286-.815-.718-.815s-.753.294-.753.886v1.318h-.312v-2.432h.312v.419a.869.869,0,0,1,.806-.463.9.9,0,0,1,.9.6.886.886,0,0,1,.878-.6.935.935,0,0,1,.967,1.051v1.425H363.5Z" transform="translate(-308.77 -155.534)"/><path class="c" d="M374.247,153.868a.227.227,0,0,1,.454,0,.227.227,0,1,1-.454,0Zm.071.691h.312v2.432h-.312Z" transform="translate(-318.596 -153.619)"/><path class="c" d="M378.256,158.961c-.552,0-.94-.276-.98-.721h.321c.027.267.258.459.655.459.348,0,.543-.187.543-.419,0-.6-1.461-.249-1.461-1.163,0-.361.343-.659.855-.659a.79.79,0,0,1,.891.744h-.312a.519.519,0,0,0-.588-.477c-.325,0-.53.173-.53.387,0,.659,1.439.307,1.452,1.167C379.1,158.672,378.759,158.961,378.256,158.961Z" transform="translate(-320.677 -155.554)"/><path class="c" d="M385.508,158.961c-.552,0-.94-.276-.98-.721h.321c.027.267.258.459.655.459.348,0,.544-.187.544-.419,0-.6-1.461-.249-1.461-1.163,0-.361.343-.659.855-.659a.79.79,0,0,1,.891.744h-.312a.519.519,0,0,0-.588-.477c-.325,0-.53.173-.53.387,0,.659,1.439.307,1.452,1.167C386.354,158.672,386.011,158.961,385.508,158.961Z" transform="translate(-325.658 -155.554)"/><path class="c" d="M392.008,153.868a.227.227,0,0,1,.455,0,.227.227,0,1,1-.455,0Zm.071.691h.312v2.432h-.312Z" transform="translate(-330.796 -153.619)"/><path class="c" d="M396.244,158.961a1.252,1.252,0,1,1,1.225-1.252A1.186,1.186,0,0,1,396.244,158.961Zm0-.272a.984.984,0,1,0-.891-.98A.881.881,0,0,0,396.244,158.689Z" transform="translate(-332.877 -155.554)"/><path class="c" d="M406.445,157.516a.711.711,0,0,0-.739-.815c-.455,0-.771.285-.771.878v1.327h-.312v-2.432h.312v.414a.889.889,0,0,1,.829-.459.944.944,0,0,1,.989,1.051v1.425h-.307Z" transform="translate(-339.461 -155.534)"/></g><g transform="translate(52.725 43.617)"><path class="d" d="M98.659,69.337A12.081,12.081,0,0,1,86.58,81.416V67.778a12.08,12.08,0,1,1,0-24.161V57.255A12.081,12.081,0,0,1,98.659,69.337Z" transform="translate(-67.681 -43.617)"/><path class="e" d="M71.623,67.79V81.429a18.9,18.9,0,0,1-.344-37.794,12.08,12.08,0,0,0,.344,24.155Z" transform="translate(-52.725 -43.629)"/></g><rect class="f" width="37.799" height="0.23" transform="translate(89.259 81.416) rotate(-90)"/></g></svg>