<svg xmlns="http://www.w3.org/2000/svg" width="40" height="29.186" viewBox="0 0 40 29.186"><defs><style>.a{fill:#1159d2;}</style></defs><g transform="translate(-448.337 -885.029)"><path class="a" d="M450.647,910.54a13.238,13.238,0,0,1-1.679-3.884,18.868,18.868,0,0,1,2.152-14.7,18.652,18.652,0,0,1,8.242-6.929l.945,1.889A13.969,13.969,0,0,0,455,890.8a10.754,10.754,0,0,0-2.677,5.354,9.967,9.967,0,0,0-.315,2.415,6.27,6.27,0,0,0,.315,1.995,7.865,7.865,0,0,1,6.089-2.52A8.434,8.434,0,0,1,464.4,900.2a7.715,7.715,0,0,1,2.31,5.931,7.62,7.62,0,0,1-2.415,5.828,8.706,8.706,0,0,1-6.194,2.257Q452.956,914.214,450.647,910.54Zm21.628,0a13.238,13.238,0,0,1-1.68-3.884,18.874,18.874,0,0,1,2.152-14.7,18.65,18.65,0,0,1,8.241-6.929l.945,1.889a13.977,13.977,0,0,0-5.3,3.885,10.759,10.759,0,0,0-2.677,5.354,9.964,9.964,0,0,0-.315,2.415,6.268,6.268,0,0,0,.315,1.995,7.865,7.865,0,0,1,6.089-2.52,8.434,8.434,0,0,1,5.984,2.152,7.715,7.715,0,0,1,2.31,5.931,7.618,7.618,0,0,1-2.415,5.828,8.705,8.705,0,0,1-6.194,2.257Q474.583,914.214,472.274,910.54Z" transform="translate(0)"/></g></svg>