<svg xmlns="http://www.w3.org/2000/svg" width="31" height="31" viewBox="0 0 31 31"><defs><style>.a,.b{fill:#fff;}.a{opacity:0.5;}</style></defs><g transform="translate(-59.147 -59.147)"><g transform="translate(60.147 60.147)"><path class="a" d="M213.133,261.56a3.793,3.793,0,1,1-7.484-.875h-3.389v3.857a.347.347,0,0,1-.469.325,3.1,3.1,0,1,0-1.1,6,2.958,2.958,0,0,0,1.094-.206l.041-.013a.348.348,0,0,1,.207.01.353.353,0,0,1,.075.039.347.347,0,0,1,.152.287v3.857h9.448a4.711,4.711,0,0,0,4.705-4.705v-9.448h-3.383A3.7,3.7,0,0,1,213.133,261.56Z" transform="translate(-186.413 -244.838)"/><path class="b" d="M69.629,209.338A3.8,3.8,0,0,1,74.3,205.65v-3.389H70.444a.347.347,0,0,1-.325-.469,3.1,3.1,0,1,0-6-1.1,2.958,2.958,0,0,0,.206,1.094.347.347,0,0,1-.28.472l-.043,0H60.147v9.448a4.711,4.711,0,0,0,4.705,4.705H74.3v-3.383a3.7,3.7,0,0,1-.874.1A3.8,3.8,0,0,1,69.629,209.338Z" transform="translate(-61.147 -186.414)"/><path class="a" d="M63.427,73.426a3.793,3.793,0,1,1,7.484.874H74.3V70.333a.347.347,0,0,1,.516-.3,3.033,3.033,0,0,0,1.473.384,3.192,3.192,0,0,0,0-6.381,2.953,2.953,0,0,0-1.469.382.347.347,0,0,1-.52-.3V60.147H64.852a4.71,4.71,0,0,0-4.705,4.705V74.3H63.53A3.7,3.7,0,0,1,63.427,73.426Z" transform="translate(-61.147 -61.147)"/><path class="b" d="M270.134,60.147h-9.448V63.57a3.709,3.709,0,0,1,1.295-.231,3.885,3.885,0,0,1,0,7.768,3.717,3.717,0,0,1-1.295-.234V74.3h3.857a.347.347,0,0,1,.325.469,3.1,3.1,0,1,0,6,1.1,2.957,2.957,0,0,0-.206-1.094.348.348,0,0,1,.036-.323.347.347,0,0,1,.287-.152h3.857V64.852A4.711,4.711,0,0,0,270.134,60.147Z" transform="translate(-244.839 -61.147)"/></g></g></svg>