<svg xmlns="http://www.w3.org/2000/svg" width="24.012" height="16.883" viewBox="0 0 24.012 16.883"><defs><style>.a{fill:#9e9e9e;}</style></defs><path class="a" d="M38.443,66.642a3.017,3.017,0,0,0-2.123-2.137C34.448,64,26.939,64,26.939,64s-7.509,0-9.381.505a3.017,3.017,0,0,0-2.123,2.137,33.971,33.971,0,0,0,0,11.634,2.972,2.972,0,0,0,2.123,2.1c1.873.505,9.381.505,9.381.505s7.509,0,9.381-.505a2.972,2.972,0,0,0,2.123-2.1,33.971,33.971,0,0,0,0-11.634Zm-13.96,9.387V68.889l6.276,3.57Z" transform="translate(-14.933 -64)"/></svg>